<?xml version="1.0" encoding="utf-8"?>
<!-- Generator: Adobe Illustrator 20.0.0, SVG Export Plug-In . SVG Version: 6.00 Build 0)  -->
<svg version="1.1" id="Layer_1" xmlns="http://www.w3.org/2000/svg" xmlns:xlink="http://www.w3.org/1999/xlink" x="0px" y="0px"
	 viewBox="0 0 200 200" style="enable-background:new 0 0 200 200;" xml:space="preserve">
<style type="text/css">
	.stwhite0{fill:#ffffff;opacity:0.3;}
	.stwhite1{fill:#ffffff;opacity:0.5;}
	.stwhite2{fill:#ffffff;opacity:0.7;}
	.stwhite3{fill:#ffffff;opacity:0.2;}
</style>
<path class="stwhite0" d="M33.8,134.6L33.8,134.6c-3.8-6.3-1.7-14.7,4.7-18.5l102.7-61.2c6.3-3.8,14.7-1.7,18.5,4.7l0,0
	c3.8,6.3,1.7,14.7-4.7,18.5L52.2,139.3C45.9,143.1,37.5,141,33.8,134.6z"/>
<path class="stwhite1" d="M130.9,163.5L130.9,163.5c-6.7,3.1-14.8,0.1-17.8-6.6L62.7,48.6c-3.1-6.7-0.1-14.8,6.6-17.8l0,0
	c6.7-3.1,14.8-0.1,17.8,6.6l50.3,108.4C140.5,152.3,137.6,160.4,130.9,163.5z"/>
<path class="stwhite2" d="M168.6,116.8L168.6,116.8c-2,7.1-9.5,11.2-16.6,9.2L37.1,93.2c-7.1-2-11.2-9.5-9.2-16.6l0,0
	c2-7.1,9.5-11.2,16.6-9.2l114.9,32.9C166.5,102.2,170.7,109.7,168.6,116.8z"/>
<path class="stwhite3" d="M76.5,167.5L76.5,167.5c-7.1-2.2-10.9-9.9-8.8-16.8l36-114c2.2-7.1,9.9-10.9,16.8-8.8l0,0
	c7.1,2.2,10.9,9.9,8.8,16.8l-36,114C91.2,165.8,83.6,169.8,76.5,167.5z"/>
</svg>
