<?xml version="1.0" encoding="utf-8"?>
<!-- Generator: Adobe Illustrator 19.2.1, SVG Export Plug-In . SVG Version: 6.00 Build 0)  -->
<svg version="1.1" id="Layer_1" xmlns="http://www.w3.org/2000/svg" xmlns:xlink="http://www.w3.org/1999/xlink" x="0px" y="0px"
	 viewBox="0 0 200 200" style="enable-background:new 0 0 200 200;" xml:space="preserve">
<style type="text/css">
	.st0{fill:#EE382D;}
	.st1{fill:#FFCB08;}
	.st2{fill:#8DC63F;}
	.st3{fill:#00ADEE;}
</style>
<g>
	<path class="st0" d="M154.9,41.7L154.9,41.7c1.8,6.8-2.3,13.9-9.1,15.7L35.7,86.6c-6.8,1.8-13.9-2.3-15.7-9.1l0,0
		c-1.8-6.8,2.3-13.9,9.1-15.7l110.1-29.2C146,30.8,153.1,34.9,154.9,41.7z"/>
	<path class="st1" d="M121.7,164.1L121.7,164.1c-5,4.9-13.2,4.9-18.1-0.1L23.4,83.2c-4.9-5-4.9-13.2,0.1-18.1l0,0
		c5-4.9,13.2-4.9,18.1,0.1l80.2,80.9C126.7,151,126.7,159.2,121.7,164.1z"/>
	<path class="st2" d="M177.9,57.3L177.9,57.3c4.2,5.6,2.9,13.7-2.7,17.9l-91.6,67.7c-5.6,4.2-13.7,2.9-17.9-2.7l0,0
		c-4.2-5.6-2.9-13.7,2.7-17.9L160,54.6C165.6,50.4,173.7,51.6,177.9,57.3z"/>
	<path class="st3" d="M109.4,167.2L109.4,167.2c-6.8-1.8-10.8-9-9-15.7l29.9-109.9c1.8-6.8,9-10.8,15.7-9l0,0c6.8,1.8,10.8,9,9,15.7
		l-29.9,109.9C123.3,165,116.2,169.1,109.4,167.2z"/>
</g>
</svg>
