<?xml version="1.0" encoding="utf-8"?>
<!-- Generator: Adobe Illustrator 19.2.1, SVG Export Plug-In . SVG Version: 6.00 Build 0)  -->
<svg version="1.1" id="Layer_1" xmlns="http://www.w3.org/2000/svg" xmlns:xlink="http://www.w3.org/1999/xlink" x="0px" y="0px"
	 viewBox="0 0 200 200" style="enable-background:new 0 0 200 200;" xml:space="preserve">
<style type="text/css">
	.st0{fill:#EE382D;}
	.st1{fill:#FFCB08;}
	.st2{fill:#8DC63F;}
	.st3{fill:#00ADEE;}
  path{mix-blend-mode: multiply;}
</style>
<path class="st0" d="M169.1,49.5L169.1,49.5c0.2,7-5.4,13-12.4,13.2L42.8,65.8c-7,0.2-13-5.4-13.2-12.4l0,0c-0.2-7,5.4-13,12.4-13.2
	L156,37.1C163,36.9,168.9,42.5,169.1,49.5z"/>
<path class="st1" d="M108.7,161.1L108.7,161.1c-6,3.7-13.9,1.7-17.6-4.2L31.6,59.7c-3.7-6-1.7-13.9,4.2-17.6l0,0
	c6-3.7,13.9-1.7,17.6,4.2l59.5,97.1C116.6,149.4,114.7,157.4,108.7,161.1z"/>
<path class="st2" d="M170.3,97L170.3,97c0.1,7-5.5,12.9-12.5,13.1l-113.9,2.3c-7,0.1-12.9-5.5-13.1-12.5l0,0
	c-0.1-7,5.5-12.9,12.5-13.1l113.9-2.3C164.3,84.3,170.2,90,170.3,97z"/>
<path class="st3" d="M96.1,161.3L96.1,161.3c-6.2-3.3-8.5-11.2-5.1-17.4l54.4-100.1c3.3-6.2,11.2-8.5,17.4-5.1l0,0
	c6.2,3.3,8.5,11.2,5.1,17.4l-54.4,100.1C110.1,162.3,102.2,164.6,96.1,161.3z"/>
</svg>
