<?xml version="1.0" encoding="utf-8"?>
<!-- Generator: Adobe Illustrator 19.2.1, SVG Export Plug-In . SVG Version: 6.00 Build 0)  -->
<svg version="1.1" id="Layer_1" xmlns="http://www.w3.org/2000/svg" xmlns:xlink="http://www.w3.org/1999/xlink" x="0px" y="0px"
	 viewBox="0 0 200 200" style="enable-background:new 0 0 200 200;" xml:space="preserve">
<style type="text/css">
	.stwhite0{fill:#FFFFFF;opacity:0.5;}
	.stwhite1{fill:#FFFFFF;opacity:0.5;}
	.stwhite2{fill:#FFFFFF;opacity:0.3;}
	.stwhite3{fill:#FFFFFF;opacity:0.4;}
</style>
<g>
	<path class="stwhite0" d="M82.5,30.3L82.5,30.3c7,0,12.8,5.8,12.8,12.8l0.2,113.9c0,7-5.8,12.8-12.8,12.8l0,0c-7,0-12.8-5.8-12.8-12.8
		L69.8,43.1C69.7,36.1,75.5,30.3,82.5,30.3z"/>
	<path class="stwhite1" d="M169.7,114.6L169.7,114.6c0,7-5.8,12.8-12.8,12.8l-113.9,0.2c-7,0-12.8-5.8-12.8-12.8l0,0
		c0-7,5.8-12.8,12.8-12.8l113.9-0.2C163.9,101.8,169.7,107.6,169.7,114.6z"/>
	<path class="stwhite2" d="M117.2,30.3L117.2,30.3c7,0,12.8,5.8,12.8,12.8l0.2,113.9c0,7-5.8,12.8-12.8,12.8l0,0c-7,0-12.8-5.8-12.8-12.8
		l-0.2-113.9C104.4,36.1,110.2,30.3,117.2,30.3z"/>
	<path class="stwhite3" d="M169.7,85.1L169.7,85.1c0,7-5.8,12.8-12.8,12.8L43.1,98.2c-7,0-12.8-5.8-12.8-12.8l0,0c0-7,5.8-12.8,12.8-12.8
		l113.9-0.2C163.9,72.3,169.7,78.1,169.7,85.1z"/>
</g>
</svg>
