<?xml version="1.0" encoding="utf-8"?>
<!-- Generator: Adobe Illustrator 19.2.1, SVG Export Plug-In . SVG Version: 6.00 Build 0)  -->
<svg version="1.1" id="Layer_1" xmlns="http://www.w3.org/2000/svg" xmlns:xlink="http://www.w3.org/1999/xlink" x="0px" y="0px"
	 viewBox="0 0 2342.6 1000" style="enable-background:new 0 0 2342.6 1000;" xml:space="preserve">
<style type="text/css">
	.st0{fill:#8DC63F;}
	.st1{fill:#FFCB08;}
	.st2{fill:#00ADEE;}
	.st3{fill:#EE382D;}
	.st4{fill:#F172AC;}
	.st5{fill:#F7941E;}
	path{mix-blend-mode: multiply;}
</style>
<g>
	<g>
		<path class="st0" d="M709.8,430L709.8,430c0-12.1,9.9-22,22-22h164c12.1,0,22,9.9,22,22v0c0,12.1-9.9,22-22,22h-164
			C719.7,452,709.8,442.1,709.8,430z"/>
		<path class="st1" d="M814.8,648L814.8,648c-12.1,0-22-9.9-22-22V430c0-12.1,9.9-22,22-22h0c12.1,0,22,9.9,22,22v196
			C836.8,638.1,826.9,648,814.8,648z"/>
	</g>
	<g>
		<path class="st2" d="M1218.8,581.3L1218.8,581.3c0-12.1,9.9-22,22-22h154c12.1,0,22,9.9,22,22v0c0,12.1-9.9,22-22,22h-154
			C1228.7,603.3,1218.8,593.4,1218.8,581.3z"/>
		<path class="st3" d="M1208.7,645.5L1208.7,645.5c-10.7-5.6-14.9-18.9-9.4-29.7l99-196c5.6-10.7,18.9-14.9,29.7-9.4v0
			c10.7,5.6,14.9,18.9,9.4,29.7l-99,196C1232.7,646.9,1219.4,651.1,1208.7,645.5z"/>
		<path class="st1" d="M1428,645.5L1428,645.5c-10.8,5.4-24.1,1-29.5-9.8l-100.6-195.2c-5.4-10.8-1-24.1,9.8-29.5v0
			c10.8-5.4,24.1-1,29.5,9.8L1437.8,616C1443.2,626.8,1438.8,640.1,1428,645.5z"/>
	</g>
	<g>
		<path class="st0" d="M306.3,576L306.3,576c-9.7,7.2-23.6,5.2-30.8-4.5l-96.6-127.7c-7.2-9.7-5.2-23.6,4.5-30.8l0,0
			c9.7-7.2,23.6-5.2,30.8,4.5l96.6,127.7C318,554.9,316,568.8,306.3,576z"/>
		<path class="st3" d="M279.2,575.9L279.2,575.9c-9.6-7.4-11.3-21.3-3.9-30.9l99.2-127.2c7.4-9.6,21.3-11.3,30.9-3.9l0,0
			c9.6,7.4,11.3,21.3,3.9,30.9l-99.2,127.2C302.7,581.6,288.8,583.3,279.2,575.9z"/>
		<path class="st1" d="M391.8,648L391.8,648c-12.1,0-22-9.9-22-22V431c0-12.1,9.9-22,22-22h0c12.1,0,22,9.9,22,22v195
			C413.8,638.1,403.9,648,391.8,648z"/>
		<path class="st2" d="M197.8,648L197.8,648c-12.1,0-22-9.9-22-22V431c0-12.1,9.9-22,22-22h0c12.1,0,22,9.9,22,22v195
			C219.8,638.1,209.9,648,197.8,648z"/>
	</g>
	<g>
		<path class="st2" d="M1487.2,625.3L1487.2,625.3c0-12.1,9.9-22,22-22h115c12.1,0,22,9.9,22,22v0c0,12.1-9.9,22-22,22h-115
			C1497.1,647.3,1487.2,637.4,1487.2,625.3z"/>
		<path class="st1" d="M1508.8,648L1508.8,648c-12.1,0-22-9.9-22-22V430c0-12.1,9.9-22,22-22l0,0c12.1,0,22,9.9,22,22v196
			C1530.8,638.1,1520.9,648,1508.8,648z"/>
	</g>
	<g>
		<path class="st2" d="M1708.5,581.3L1708.5,581.3c0-12.1,9.9-22,22-22h154c12.1,0,22,9.9,22,22v0c0,12.1-9.9,22-22,22h-154
			C1718.4,603.3,1708.5,593.4,1708.5,581.3z"/>
		<path class="st3" d="M1698.3,645.5L1698.3,645.5c-10.7-5.6-14.9-18.9-9.4-29.7l99-196c5.6-10.7,18.9-14.9,29.7-9.4v0
			c10.7,5.6,14.9,18.9,9.4,29.7l-99,196C1722.4,646.9,1709.1,651.1,1698.3,645.5z"/>
		<path class="st1" d="M1917.7,645.5L1917.7,645.5c-10.8,5.4-24.1,1-29.5-9.8l-100.6-195.2c-5.4-10.8-1-24.1,9.8-29.5v0
			c10.8-5.4,24.1-1,29.5,9.8L1927.5,616C1932.9,626.8,1928.5,640.1,1917.7,645.5z"/>
		<path class="st4" d="M1842.5,382.1H1773c-8.3,0-15-6.8-15-15v0c0-8.3,6.8-15,15-15h69.4c8.3,0,15,6.8,15,15v0
			C1857.5,375.3,1850.8,382.1,1842.5,382.1z"/>
	</g>
	<g>
		<path class="st2" d="M487.8,575L487.8,575c-12.1,0-22-9.9-22-22V427c0-12.1,9.9-22,22-22h0c12.1,0,22,9.9,22,22v126
			C509.8,565.1,499.9,575,487.8,575z"/>
		<path class="st3" d="M650.8,574L650.8,574c-12.1,0-22-9.9-22-22V426c0-12.1,9.9-22,22-22h0c12.1,0,22,9.9,22,22v126
			C672.8,564.1,662.9,574,650.8,574z"/>
		<g>
			<path class="st5" d="M568.9,646.4c-57.4,0-103.1-39.9-103.1-93.9c0-12.2,9.8-22,22-22s22,9.8,22,22c0,29.7,26,49.9,59.1,49.9
				s60.1-24.2,60.1-53.9c0-12.2,9.8-22,22-22s22,9.8,22,22C673.1,602.5,626.4,646.4,568.9,646.4z"/>
		</g>
	</g>
	<g>
		<path class="st2" d="M972.8,574L972.8,574c-12.1,0-22-9.9-22-22V426c0-12.1,9.9-22,22-22h0c12.1,0,22,9.9,22,22v126
			C994.8,564.1,984.9,574,972.8,574z"/>
		<path class="st3" d="M1136.8,574L1136.8,574c-12.1,0-22-9.9-22-22V426c0-12.1,9.9-22,22-22l0,0c12.1,0,22,9.9,22,22v126
			C1158.8,564.1,1148.9,574,1136.8,574z"/>
		<g>
			<path class="st5" d="M1055.7,646.4c-57.4,0-104.1-43.9-104.1-97.9c0-12.2,9.8-22,22-22s22,9.8,22,22c0,29.7,27,53.9,60.1,53.9
				s60.1-24.2,60.1-53.9c0-12.2,9.8-22,22-22s22,9.8,22,22C1159.8,602.5,1113.1,646.4,1055.7,646.4z"/>
		</g>
	</g>
	<g>
		<path class="st2" d="M1964.8,430L1964.8,430c0-12.1,9.9-22,22-22h96c12.1,0,22,9.9,22,22v0c0,12.1-9.9,22-22,22h-96
			C1974.7,452,1964.8,442.1,1964.8,430z"/>
		<path class="st1" d="M1964.8,522.5L1964.8,522.5c0-12.1,9.9-22,22-22h96c12.1,0,22,9.9,22,22l0,0c0,12.1-9.9,22-22,22h-96
			C1974.7,544.5,1964.8,534.6,1964.8,522.5z"/>
		<path class="st1" d="M1964.8,625.3L1964.8,625.3c0-12.1,9.9-22,22-22h107c12.1,0,22,9.9,22,22v0c0,12.1-9.9,22-22,22h-107
			C1974.7,647.3,1964.8,637.4,1964.8,625.3z"/>
		<path class="st1" d="M1986.8,648L1986.8,648c-12.1,0-22-9.9-22-22V431c0-12.1,9.9-22,22-22l0,0c12.1,0,22,9.9,22,22v195
			C2008.8,638.1,1998.9,648,1986.8,648z"/>
		<g>
			<path class="st4" d="M2094.5,647.8c-12.4,0-22.5-10.1-22.5-22.5s10.1-22.5,22.5-22.5c21,0,28.5-16.3,28.5-31.5
				c0-19.4-22.4-26.5-37.5-26.5c-12.4,0-22.5-10.1-22.5-22.5s10.1-22.5,22.5-22.5c47,0,82.5,30.7,82.5,71.5
				C2168,615.7,2137.1,647.8,2094.5,647.8z"/>
		</g>
		<g>
			<path class="st0" d="M2084.4,544.9c-12.4,0-22.5-10.1-22.5-22.5s10.1-22.5,22.5-22.5c11.6,0,22-6,22-25.7
				c0-16.2-10.2-22.1-23.2-22.1c-12.4,0-22.5-10.1-22.5-22.5s10.1-22.5,22.5-22.5c44,0,68.2,38.5,68.2,67.1
				C2151.3,515.8,2124.3,544.9,2084.4,544.9z"/>
		</g>
	</g>
</g>
</svg>
