<?xml version="1.0" encoding="utf-8"?>
<!-- Generator: Adobe Illustrator 16.0.0, SVG Export Plug-In . SVG Version: 6.00 Build 0)  -->
<!DOCTYPE svg PUBLIC "-//W3C//DTD SVG 1.1//EN" "http://www.w3.org/Graphics/SVG/1.1/DTD/svg11.dtd">
<svg version="1.1" id="Layer_1" xmlns="http://www.w3.org/2000/svg" xmlns:xlink="http://www.w3.org/1999/xlink" x="0px" y="0px"
	 width="189px" height="166px" viewBox="0 0 189 166" enable-background="new 0 0 189 166" xml:space="preserve">
<g>
	<g>
		<path fill-rule="evenodd" clip-rule="evenodd" fill="#000000" d="M100,30c0-9.999,0-20.001,0-30C66.67,0,33.33,0,0,0
			c0,13.666,0,27.335,0,41c9.999,0,20.001,0,30,0c0,31.664,0,63.337,0,95c13.332,0,26.668,0,40,0c0-31.663,0-63.336,0-95
			c6.332,0,12.668,0,19,0c0,41.662,0,83.338,0,125c13.665,0,27.334,0,41,0c0-25.664,0-51.335,0-77c19.664,0,39.335,0,59,0
			c0-19.665,0-39.335,0-59C159.335,30,129.664,30,100,30z M89,30c-9.666,0-19.334,0-29,0c0,31.664,0,63.337,0,95
			c-6.332,0-12.668,0-19,0c0-31.663,0-63.336,0-95c-9.999,0-20.001,0-30,0c0-6.333,0-12.667,0-19c25.998,0,52.002,0,78,0
			C89,17.333,89,23.667,89,30z M178,78c-19.664,0-39.335,0-59,0c0,25.664,0,51.336,0,77c-6.332,0-12.668,0-19,0
			c0-37.996,0-76.003,0-114c25.998,0,52.001,0,78,0C178,53.332,178,65.668,178,78z"/>
	</g>
</g>
</svg>
